<?xml version="1.0" standalone="no"?>
<!DOCTYPE svg PUBLIC "-//W3C//DTD SVG 20010904//EN"
 "http://www.w3.org/TR/2001/REC-SVG-20010904/DTD/svg10.dtd">
<svg version="1.0" xmlns="http://www.w3.org/2000/svg"
 width="500.000000pt" height="500.000000pt" viewBox="0 0 500.000000 500.000000"
 preserveAspectRatio="xMidYMid meet">

<g transform="translate(0.000000,500.000000) scale(0.100000,-0.100000)"
fill="#000000" stroke="none">
<path d="M1572 4354 c-65 -33 -97 -54 -107 -74 -9 -18 -40 -40 -89 -66 -165
-83 -277 -194 -338 -334 -32 -73 -33 -79 -33 -210 0 -126 3 -141 32 -227 55
-157 149 -319 281 -485 34 -42 64 -88 68 -102 17 -69 479 -533 701 -705 l73
-56 -183 -12 c-273 -18 -462 -55 -652 -128 -126 -49 -158 -70 -149 -98 12 -41
46 -87 73 -101 20 -11 149 -20 512 -35 606 -26 549 -27 549 4 0 19 -5 25 -22
25 -41 0 -749 29 -881 36 -126 7 -128 7 -153 37 -14 16 -21 33 -17 38 15 15
193 80 286 104 175 46 416 75 620 75 89 0 91 -1 156 -42 36 -24 69 -47 73 -53
4 -5 8 -62 8 -125 1 -382 114 -630 361 -794 248 -164 625 -176 879 -29 130 76
274 242 325 376 16 43 21 48 43 42 92 -23 184 -96 230 -182 35 -66 44 -110 46
-216 l1 -72 170 3 c273 5 355 22 355 73 0 10 -14 28 -30 41 l-30 22 6 90 c6
86 5 93 -19 128 -15 21 -31 56 -37 78 -31 115 -212 211 -537 285 -61 14 -114
25 -117 25 -3 0 -6 103 -6 229 l0 229 30 12 c39 16 97 81 122 137 27 60 26
157 -2 220 -95 217 -405 222 -506 8 -31 -66 -33 -170 -3 -235 25 -55 71 -105
122 -131 l37 -19 0 -210 c0 -116 -3 -210 -7 -210 -52 0 -387 51 -415 63 -21 9
-106 55 -189 103 -83 47 -204 111 -268 142 -64 30 -118 57 -120 59 -3 2 6 11
20 21 141 98 432 373 595 562 118 137 141 169 150 205 3 17 16 44 28 60 37 50
121 195 165 283 233 466 141 807 -272 1009 -39 19 -82 48 -95 64 -29 36 -179
109 -224 109 -54 0 -93 -31 -113 -90 -20 -62 -14 -108 19 -139 34 -32 213 -74
255 -60 24 9 38 6 83 -17 78 -39 172 -108 207 -153 112 -141 119 -323 23 -556
-28 -69 -78 -165 -69 -134 14 47 18 154 8 220 -34 219 -155 393 -335 483 -97
49 -183 69 -291 69 -168 -1 -309 -58 -428 -175 l-68 -67 -62 63 c-304 304
-824 212 -1008 -179 -50 -105 -62 -174 -56 -315 3 -69 8 -136 12 -150 11 -41
-63 77 -111 177 -92 190 -106 338 -45 469 37 79 120 165 211 219 56 33 74 39
130 40 105 2 211 29 237 60 35 40 39 72 17 134 -21 61 -66 101 -113 100 -14 0
-68 -20 -119 -45z m148 -14 c24 -13 54 -92 45 -120 -8 -27 -47 -43 -142 -60
-67 -12 -75 -12 -92 4 -26 24 -36 72 -20 92 15 18 157 93 177 94 7 0 22 -4 32
-10z m1569 -29 c83 -42 93 -56 79 -107 -10 -38 -46 -57 -85 -44 -15 5 -54 14
-86 20 -42 8 -62 18 -73 35 -31 47 9 135 62 135 13 0 60 -18 103 -39z m204
-132 c209 -106 329 -252 357 -435 19 -125 -14 -283 -96 -462 -37 -81 -168
-307 -184 -317 -5 -3 -20 1 -34 10 l-24 16 50 82 c157 260 225 458 216 633 -4
80 -10 103 -42 170 -54 114 -153 203 -323 289 -4 2 9 45 13 45 3 0 33 -14 67
-31z m-2030 -8 c4 -16 -9 -27 -62 -58 -89 -51 -200 -163 -234 -235 -89 -189
-49 -396 135 -691 27 -44 69 -107 94 -140 l45 -59 -22 -21 -22 -21 -40 45
c-101 113 -229 336 -276 481 -92 280 11 526 284 679 80 44 91 46 98 20z m619
-205 c142 -26 266 -101 341 -208 46 -66 69 -72 92 -27 9 17 42 56 74 88 170
167 426 204 649 94 139 -68 249 -204 298 -368 41 -137 16 -342 -59 -495 l-32
-65 -155 -3 -155 -2 -12 29 c-14 38 -67 71 -113 71 -46 0 -99 -33 -113 -71
-11 -27 -15 -30 -51 -27 l-40 3 -26 100 c-15 55 -30 112 -34 128 -4 18 -13 27
-26 27 -11 0 -20 -3 -20 -6 0 -9 -129 -573 -137 -599 -6 -18 -30 177 -90 718
-9 86 -20 163 -24 169 -22 35 -39 -13 -114 -316 -43 -174 -81 -314 -84 -310
-3 3 -26 63 -51 132 -30 84 -50 127 -60 127 -8 0 -36 -39 -63 -87 l-49 -88
-259 0 -259 0 -28 58 c-114 227 -114 470 0 660 72 118 204 218 338 256 101 28
156 30 262 12z m362 -798 c10 -84 32 -283 50 -443 30 -271 33 -290 51 -290 17
0 25 22 61 170 23 94 56 233 74 310 43 192 43 193 64 110 10 -38 22 -75 28
-82 6 -8 33 -13 62 -13 49 0 53 -2 68 -33 18 -37 69 -67 115 -67 39 0 93 35
106 70 l11 30 124 0 c117 0 124 -1 111 -17 -224 -289 -565 -609 -796 -748 -92
-56 -107 -52 -279 77 -193 143 -432 369 -618 583 l-87 100 235 3 235 2 37 66
c25 45 39 62 44 53 4 -8 27 -72 50 -144 43 -130 55 -155 71 -155 15 0 24 31
91 308 34 144 65 262 69 262 3 0 13 -69 23 -152z m607 -151 c31 -24 42 -56 28
-88 -32 -79 -139 -59 -139 26 0 59 66 97 111 62z m-1413 -224 c228 -261 501
-510 709 -649 89 -60 132 -72 187 -54 48 15 211 126 316 213 124 103 401 384
513 520 97 116 116 130 149 105 38 -30 31 -51 -52 -152 -248 -299 -598 -616
-832 -752 -46 -26 -71 -49 -80 -69 -9 -21 -13 -80 -12 -190 1 -186 14 -255 75
-383 101 -212 329 -342 599 -342 352 0 599 222 649 584 6 42 11 174 11 292 l0
214 43 0 44 0 7 -167 c16 -410 -45 -625 -228 -809 -162 -162 -378 -234 -620
-206 -339 38 -581 252 -661 582 -10 39 -18 131 -21 230 -3 91 -10 179 -15 195
-6 20 -25 40 -56 60 -229 142 -493 374 -790 694 -143 153 -153 169 -129 206
33 50 54 36 194 -122z m2372 -180 c181 -74 175 -343 -10 -421 -55 -23 -158
-13 -209 21 -63 42 -93 94 -99 175 -13 181 147 295 318 225z m-1153 -601 c48
-22 162 -80 253 -131 288 -161 278 -157 499 -186 107 -14 196 -25 198 -25 13
0 -18 -181 -35 -206 -4 -5 -27 -18 -52 -29 -25 -11 -72 -47 -105 -80 -54 -54
-74 -86 -113 -187 -9 -22 -24 -31 -84 -50 -96 -30 -309 -32 -403 -4 -196 59
-341 197 -399 381 -30 98 -45 312 -28 409 6 31 15 44 41 60 30 17 38 18 85 6
112 -28 312 -128 431 -215 l50 -37 -276 7 c-275 7 -276 7 -282 -14 -3 -11 -2
-23 2 -25 4 -3 154 -8 334 -12 291 -6 327 -5 327 8 0 18 -107 108 -190 160
-72 46 -239 129 -318 158 -50 18 -60 25 -51 36 16 19 17 19 116 -24z m1278
-397 c302 -68 485 -161 501 -253 3 -21 17 -54 31 -74 24 -35 25 -41 18 -131
-7 -93 -7 -94 19 -114 14 -12 26 -23 26 -26 0 -5 -100 -12 -297 -21 l-113 -6
0 44 c0 174 -92 326 -243 401 -38 19 -76 35 -85 35 -10 0 -13 7 -8 23 3 12 11
50 17 85 6 34 14 62 18 62 3 0 56 -11 116 -25z m-422 -266 c-23 -39 -122 -149
-134 -149 -17 0 -9 18 31 71 33 45 103 109 117 109 2 0 -4 -14 -14 -31z"/>
<path d="M1960 3812 c-101 -14 -231 -87 -291 -164 -63 -80 -99 -187 -99 -292
0 -53 17 -85 38 -72 5 3 12 43 14 88 3 51 14 105 27 141 42 109 178 224 286
242 63 11 75 15 75 29 0 20 -22 32 -50 28z"/>
<path d="M3866 2560 c-63 -19 -106 -83 -106 -157 0 -57 26 -105 72 -133 40
-24 116 -26 158 -5 96 49 114 178 37 253 -48 46 -100 60 -161 42z m125 -79
c24 -24 29 -38 29 -76 0 -38 -5 -52 -29 -76 -58 -57 -162 -30 -177 46 -14 78
29 135 103 135 36 0 50 -6 74 -29z"/>
<path d="M3850 2468 c-21 -23 -26 -43 -11 -52 4 -3 13 6 19 19 6 13 23 27 37
31 32 8 33 24 0 24 -13 0 -33 -10 -45 -22z"/>
<path d="M1791 2169 c-295 -20 -437 -56 -901 -227 -193 -72 -256 -86 -445
-102 -77 -7 -145 -17 -152 -22 -7 -6 -12 -32 -11 -61 1 -29 -4 -99 -11 -157
-9 -83 -17 -113 -37 -144 -23 -33 -26 -49 -25 -118 1 -82 20 -174 48 -233 19
-39 18 -39 286 -90 254 -48 237 -50 237 33 0 121 38 212 120 286 97 88 230
117 350 76 165 -56 252 -180 254 -365 l1 -90 318 -3 c174 -1 460 -1 635 0
l317 3 -38 23 -38 22 -570 0 -569 0 0 48 c0 59 -24 161 -49 210 -61 119 -197
209 -332 219 -233 17 -424 -139 -447 -367 -8 -88 21 -84 -237 -34 -99 19 -183
40 -187 47 -22 34 -48 146 -48 208 0 59 4 76 27 110 22 34 28 58 35 138 16
193 18 201 41 205 12 2 78 9 147 15 165 15 213 27 452 115 277 102 472 165
538 176 52 9 213 22 435 36 l99 6 -27 24 c-31 26 -23 26 -216 13z"/>
<path d="M1043 1386 c-58 -19 -105 -50 -148 -98 -126 -139 -119 -347 16 -473
73 -68 127 -89 229 -90 73 0 93 4 142 28 72 35 130 93 165 165 24 49 28 69 28
142 0 74 -4 93 -29 144 -58 119 -161 186 -290 193 -42 2 -88 -3 -113 -11z
m184 -51 c64 -19 136 -82 170 -149 78 -151 -10 -354 -175 -402 -142 -42 -300
38 -346 174 -37 107 -12 224 63 301 79 81 181 108 288 76z"/>
<path d="M3980 1369 c-12 -21 -6 -39 14 -39 25 0 107 -63 136 -106 87 -125 68
-283 -46 -383 -112 -99 -275 -93 -379 13 -28 28 -57 61 -65 74 -16 24 -50 22
-50 -2 0 -30 68 -111 122 -146 145 -94 316 -74 432 50 68 73 90 127 90 225 0
65 -4 90 -26 136 -40 88 -111 158 -190 188 -24 9 -29 7 -38 -10z"/>
</g>
</svg>
